<?xml version="1.0" standalone="no"?><!DOCTYPE svg PUBLIC "-//W3C//DTD SVG 1.1//EN" "http://www.w3.org/Graphics/SVG/1.1/DTD/svg11.dtd"><svg class="icon" width="128px" height="128.00px" viewBox="0 0 1024 1024" version="1.1" xmlns="http://www.w3.org/2000/svg"><path d="M395.608641 604.040253c9.265014-10.096962-2.133593-11.224646-8.899694-11.406794-18.442024-0.48607-36.918841-0.851391-55.326073-0.12996-15.890922 0.61603-23.472598-4.692882-23.144116-21.825075 0.728594-39.720653 0.538259-79.466889 0.069585-119.195729-0.156566-14.32117 4.995781-20.792559 19.915585-20.22974 19.11843 0.729617 38.306444 0.191358 57.459666 0.034792 4.094248-0.034792 9.125845 0.989537 11.606339-3.25309 2.77623-4.753257-1.526773-7.885598-4.371564-10.739599-19.986193-20.141736-40.024575-40.240493-60.253292-60.140729-10.722202-10.54824-21.304212-9.116635-31.55774 1.179872-28.556383 28.652574-57.060577 57.329706-85.859483 85.738733-12.803607 12.638855-11.536754 23.941272 0.156566 36.797068 25.710568 28.260647 25.762757 35.521005-0.277316 64.069201-11.346419 12.43931-12.057617 22.961968-0.035816 34.845623 28.746718 28.443819 57.251935 57.130162 85.876879 85.695754 4.597715 4.579295 9.664104 8.396227 18.546402 8.595772 2.185782-0.841158 7.043417-1.335415 9.80225-3.998057C351.750761 648.4016 374.546953 627.010407 395.608641 604.040253z" fill="#d81e06" /><path d="M725.376227 663.47797c26.907836-27.272133 54.05922-54.31914 81.262792-81.313957 12.993942-12.898775 13.133112-25.051559 0.624217-38.827307-23.64656-26.031886-23.508413-35.824927 0.520863-63.166645 10.772344-12.266371 12.178367-23.334451 0.190335-35.279504-28.64234-28.547173-57.181327-57.217143-85.772502-85.824691-4.580319-4.588505-9.558703-8.483208-17.955954-9.471722-2.515287 1.014096-7.320733 1.587148-10.114358 4.276397-22.467711 21.659299-45.00296 43.276642-66.515926 65.86408-9.54233 10.019191 0.13917 11.406794 7.68503 11.511171 20.575618 0.286526 41.187051 0.772596 61.727876-0.025583 15.024182-0.581238 19.794835 5.655813 19.552312 20.133549-0.624217 40.440038-0.659009 80.898495 0 121.338532 0.242524 15.068184-6.054903 20.185738-20.298302 19.760043-19.135826-0.572028-38.306444-0.207731-57.476039 0-4.735861 0.052189-10.860349-1.639337-13.532201 3.65218-2.931772 5.828752 3.122107 8.769734 6.314823 12.022825 18.407232 18.720364 37.334303 36.936237 55.5512 55.846936C700.462814 677.833933 712.503035 676.514891 725.376227 663.47797z" fill="#d81e06" /><path d="M359.713107 686.98536c-13.480013 13.314237-12.143575 25.615401 0.972141 38.504966 27.376511 26.883277 54.700833 53.842279 81.331353 81.453127 14.156418 14.694677 25.815969 13.072737 39.729863-0.494257 23.923876-23.299659 35.218106-23.299659 59.211567 0.164752 13.983479 13.671371 26.248827 15.015995 40.181141 0.954745 27.514657-27.758204 55.256488-55.291281 82.858126-82.954317 5.082762-5.100158 9.403161-10.703783 9.715269-19.986193-1.059122-2.533706-1.683339-7.338129-4.389984-10.131755-21.269419-21.929452-42.418089-44.005236-64.677045-64.911382-10.201339-9.593496-11.311627 0.632403-11.432377 7.936763-0.346901 19.170618-0.728594 38.384216-0.034792 57.546647 0.51984 14.286378-4.372587 20.697391-19.48375 20.48045-41.914622-0.590448-83.847663-0.476861-125.779681-0.052189-13.496385 0.13917-19.430538-4.735861-18.945491-18.711154 0.693802-19.162432 0.294712-38.366819 0-57.545624-0.068562-4.562922 1.925862-11.311627-4.544503-12.474103-3.036149-0.537236-7.512091 3.243881-10.357905 6.045693C395.798976 650.735761 377.912607 669.003823 359.713107 686.98536z" fill="#d81e06" /><path d="M593.15995 389.773238c0.13917 11.242042 4.996804 12.647041 12.595876 5.091972 20.645203-20.532639 41.307801-41.038672 61.466933-62.039985 9.471722-9.880021 8.361435-20.376073-1.336438-30.048363-29.145807-29.084409-58.310034-58.179051-87.351464-87.377046-11.155061-11.233855-21.530362-10.703783-33.379225-0.320295-29.614481 25.953092-36.83186 25.919323-66.221214 0.068562-11.467169-10.096962-22.257933-12.108782-33.587979-0.850367-29.215392 29.033243-58.361199 58.136072-87.36886 87.36886-11.069103 11.156084-10.409071 22.475897 0.624217 33.491789 18.095124 18.060331 36.051077 36.250622 54.215786 54.232159 3.365654 3.330862 6.523577 8.909927 12.057617 7.070023 6.072299-2.01182 4.00829-8.43102 4.094248-13.028735 0.294712-17.036002 1.387603-34.1948-0.172939-51.092655-1.89107-20.453844 6.800893-26.187429 25.76378-24.860201 18.372439 1.283226 36.901445 0.277316 55.360865 0.277316 17.748223 0 35.513842-0.025583 53.260018 0 29.788443 0.052189 29.788443 0.069585 29.840632 30.890544C593.056596 355.691002 592.952218 372.736213 593.15995 389.773238z" fill="#d81e06" /><path d="M331.400271 317.931003c9.160637 2.029216 5.760191-7.521301 8.587586-11.519358 3.2623-4.589528 6.124488-9.620102 10.028401-13.57518 28.486798-28.79072 56.921407-57.633628 85.929068-85.886089 18.337647-17.860786 32.441876-17.288758 51.821249 0.382717 22.119787 20.184715 25.103748 20.384259 47.275723-0.382717 13.271258-12.4301 28.764114-19.99438 43.632753-7.017834 36.848233 32.191166 71.8934 66.420759 103.485933 103.981213 3.504824 4.163833 1.924839 15.405875 11.536754 11.276834 0.432859-0.186242 0.841158-0.39295 1.226944-0.6191 5.789866-3.397377 6.480598-11.17655 6.562463-18.048051 0.242524-8.713452-3.194762-15.798824-8.577353-21.962198-0.768503-0.880043-1.577938-1.741667-2.421142-2.586918-32.633235-32.676214-64.97278-65.648163-98.091062-97.820909-17.539468-17.019629-32.4429-16.455787-50.554396-0.38988-30.67258 27.185152-30.67258 27.185152-60.617589 0.502443-18.476817-16.446577-33.187867-17.366529-50.537-0.563842-33.153074 32.130791-65.526389 65.085344-98.05627 97.856725-8.951883 9.021467-14.139022 19.717064-10.356882 32.824593C323.835991 309.811068 325.536726 316.621171 331.400271 317.931003z" fill="#d81e06" /><path d="M302.636157 682.708963c-3.210112-2.758834-7.217379-4.65809-10.201339-7.616468-29.250184-29.025057-58.709123-57.858756-87.352487-87.473237-15.873526-16.411785-15.006785-33.447786 0.554632-51.039443 21.321608-24.096814 21.599947-25.40767-0.051165-48.837288-12.023848-13.028735-18.23327-29.172413-6.297426-42.079374 34.576493-37.430494 68.320015-75.997881 109.593024-106.643855 2.63706-1.960655 7.599072-1.708921 7.529487-6.115278-0.085958-5.004991-4.615111-7.051603-8.570189-8.378831-15.145955-5.031597-27.879977-0.373507-38.792515 10.513448-31.679513 31.618115-63.600527 63.019289-94.915743 95.002724-16.96744 17.330714-16.480346 34.202986-0.017396 52.618405 25.364691 28.39163 25.364691 29.598108-0.538259 59.446927-16.151865 18.614963-15.995299 34.523281 1.63115 52.42807 31.41857 31.887244 63.272046 63.332421 94.847182 95.053889 7.252171 7.278777 15.249309 12.716626 27.393907 13.46364 5.967922-1.838881 15.874549-1.917676 18.199501-10.149151C318.319347 683.480536 306.955532 686.413332 302.636157 682.708963z" fill="#d81e06" /><path d="M849.923848 481.235322c13.20065-14.633279 17.637706-30.689976 3.400446-45.574988-34.386158-35.912931-69.465095-71.208808-105.636922-105.308441-12.941753-12.204973-29.059849-11.988032-44.500517 4.65809 12.301164 3.487428 21.565155 8.075933 29.1806 15.804964 27.428699 27.826765 55.413054 55.109132 82.718957 83.057671 18.164708 18.580171 18.009166 36.840046 0.763386 56.305377-18.996656 21.434172-18.961864 24.218588 0.607844 45.853327 16.810874 18.597567 16.603143 35.704177-1.214664 54.119595-14.33038 14.799054-28.399817 29.953196-43.806715 43.572378-20.472264 18.095124-34.663474 43.354414-62.369489 53.44319-8.014534 2.923586-1.943258 8.205892 2.169409 10.712993 15.388479 9.394974 28.434609 4.380774 40.127929-7.312546 32.650631-32.650631 65.544809-65.075111 97.882308-98.038874 16.84669-17.201777 16.381086-32.025391-0.033769-50.303686C822.703903 512.750083 822.547337 511.579421 849.923848 481.235322z" fill="#d81e06" /><path d="M693.575963 708.507536c-2.619664-2.117221-4.996804-0.538259-6.714935 2.306532-25.363667 41.914622-65.283866 70.367651-98.072643 105.411795-18.251689 19.500123-33.431414 18.649755-53.607942 0.88516-22.970154-20.211321-23.64656-20.22974-45.403073-0.945535-21.771863 19.300578-36.69269 19.35379-57.268308-0.840134-26.820855-26.345018-53.295833-53.045123-79.736019-79.788208-4.423753-4.484128-7.841595-9.976212-11.780301-14.95562-3.487428-4.422729-0.676405-15.387455-10.252505-12.916171-7.373944 1.90028-8.900717 10.540054-9.490142 17.662265-0.936325 11.536754 4.89345 20.297278 12.717649 28.087709 32.129768 32.078603 63.999616 64.407915 96.390327 96.217389 17.296945 17.001209 32.634258 16.809851 50.259684 0.771573 28.383444-25.832342 33.708729-25.849738 61.623499-0.25992 17.955954 16.455787 32.390711 16.681938 49.999764-0.624217 32.894178-32.321126 65.283866-65.145719 97.899704-97.725742 6.749728-6.740518 11.797697-14.20042 11.276834-24.297382C701.122847 720.217229 699.510116 713.311958 693.575963 708.507536z" fill="#d81e06" /></svg>
